<svg xmlns="http://www.w3.org/2000/svg" xmlns:xlink="http://www.w3.org/1999/xlink" viewBox="0 0 110.629 24.989" overflow="visible"><g><path d="M 98.112 21.67 C 103.192 21.67 107.265 17.563 107.265 12.483 C 107.265 7.403 103.192 3.33 98.112 3.33 C 93.032 3.33 88.959 7.437 88.959 12.483 C 88.97 17.517 93.078 21.67 98.112 21.67 Z M 85.641 0 L 110.629 0 L 110.629 24.989 L 85.641 24.989 Z" fill="rgb(0,0,0)"></path><path d="M 53.307 16.27 L 53.307 24.989 L 28.318 24.989 L 28.318 0 L 53.295 0 L 53.295 12.838 L 31.636 12.838 C 31.819 17.735 35.858 21.67 40.789 21.67 C 44.508 21.67 47.689 19.451 49.153 16.27 Z M 32.037 9.76 L 49.485 9.76 C 48.204 5.503 44.771 3.33 40.801 3.33 C 36.831 3.33 33.135 5.652 32.037 9.76 Z" fill="rgb(0,0,0)"></path><path d="M 24.989 0 L 0 0 L 0 24.989 L 24.989 24.989 L 24.989 16.27 L 20.847 16.27 C 19.416 19.451 16.201 21.67 12.517 21.67 C 7.437 21.67 3.33 17.529 3.33 12.483 C 3.33 7.437 7.437 3.33 12.517 3.33 C 16.27 3.33 19.485 5.618 20.915 8.867 L 24.989 8.867 Z M 82.54 16.27 L 78.398 16.27 C 77.151 19.554 73.787 21.636 69.966 21.636 C 65.034 21.636 60.881 18.066 60.881 12.483 L 60.881 0 L 56.659 0 L 56.659 24.989 L 82.54 24.989 Z" fill="rgb(0,0,0)"></path></g></svg>